<?xml version="1.0" encoding="iso-8859-1"?>
<!-- Generator: Adobe Illustrator 18.1.0, SVG Export Plug-In . SVG Version: 6.00 Build 0)  -->
<svg version="1.1" id="&#x30EC;&#x30A4;&#x30E4;&#x30FC;_1"
	 xmlns="http://www.w3.org/2000/svg" xmlns:xlink="http://www.w3.org/1999/xlink" x="0px" y="0px" viewBox="0 359.89 595.28 120"
	 style="enable-background:new 0 359.89 595.28 120;" xml:space="preserve">
<g>
	<g>
		<path style="fill:#5F4B3E;" d="M46.262,449.619c0,2.94-0.979,5.601-5.32,5.601c-4.271,0-6.511-0.84-6.511-5.601v-16.242
			c-0.7,0.56-1.75,1.26-3.5,1.26c-3.431,0-6.231-3.36-6.231-6.651c0-3.22,1.89-4.621,6.02-7.631
			c7.491-5.39,10.012-10.851,10.012-11.061c0-0.07,0-0.77-0.98-0.77h-8.61c-1.33,0-5.671,0-5.671-5.181
			c0-4.271,1.891-5.811,5.671-5.811h3.29v-3.85c0-1.96,0.21-5.671,5.461-5.671c4.48,0,6.3,1.47,6.3,5.671v3.85h1.261
			c5.53,0,6.65,3.78,6.65,6.861c0,0.98-0.14,1.68-0.14,2.24c0.979-1.05,2.1-1.47,4.34-1.47h7.491v-11.271
			c0-2.311,0.49-5.671,5.53-5.671c4.761,0,6.511,1.47,6.511,5.671v11.271h7.491c1.82,0,6.021,0.14,6.021,5.531
			c0,4.69-1.82,6.3-6.021,6.3h-7.491v24.923h8.331c1.82,0,5.95,0.14,5.95,5.391c0,4.55-1.68,6.23-5.95,6.23H56.553
			c-1.96,0-6.65-0.07-6.65-5.391c0-4.621,2.03-6.23,6.65-6.23h9.241v-24.923h-7.491c-3.57,0-5.67-1.33-5.74-5.74
			c-0.84,1.89-2.03,3.99-4.131,7.141c0.561,0.63,1.471,1.61,4.271,4.2c2.66,2.521,3.781,3.571,3.781,5.321
			c0,2.38-2.171,5.741-5.321,5.741c-2.38,0-3.71-1.68-4.9-3.081L46.262,449.619L46.262,449.619z"/>
		<path style="fill:#5F4B3E;" d="M115.631,416.226c-2.1,0-4.55-0.42-5.39-3.36c-0.91,0.49-1.82,1.05-3.991,2.101
			c-2.31,1.12-3.78,1.54-5.04,1.54c-3.641,0-5.881-3.5-5.881-6.931c0-3.57,2.24-4.48,3.78-5.111
			c6.651-2.8,12.741-5.25,20.652-12.741c2.24-2.17,4.341-4.13,9.241-4.13c4.76,0,6.16,1.33,10.641,5.391
			c7.211,6.581,14.212,9.451,19.112,11.411c1.96,0.77,3.92,1.75,3.92,5.25c0,3.57-2.45,6.861-5.88,6.861
			c-1.471,0-3.711-0.63-9.102-3.71c-0.84,3.22-3.78,3.43-5.391,3.43h-26.671V416.226z M147.485,431.277
			c1.681,1.33,5.601,6.021,7.351,8.261c5.181,6.371,5.181,7.491,5.181,8.751c0,4.2-4.83,6.23-7.49,6.23
			c-2.171,0-2.521-0.49-5.041-4.2c-5.811,0.84-10.501,1.26-19.392,1.89c-6.511,0.42-24.152,1.54-24.643,1.54
			c-1.4,0-5.601,0-5.601-6.09c0-1.12,0.28-4.411,3.01-5.181c0.98-0.28,4.69-0.35,7.001-0.42c2.45-5.321,3.641-8.961,4.2-10.781
			h-9.311c-3.851,0-5.74-1.61-5.74-5.881c0-5.32,4.34-5.32,5.74-5.32h52.436c3.851,0,5.671,1.61,5.671,5.951
			c0,5.25-4.341,5.25-5.671,5.25L147.485,431.277L147.485,431.277z M124.873,431.277c-1.89,4.48-2.8,6.581-4.69,10.431
			c8.611-0.21,9.801-0.28,20.513-0.84c-3.011-3.57-3.36-3.92-3.36-5.53c0-1.33,0.84-2.871,2.59-4.061H124.873z M137.684,406.005
			c-1.4-1.19-3.57-3.011-6.511-5.881c-1.12-1.12-1.54-1.54-2.17-1.54s-1.051,0.42-2.171,1.54c-2.939,2.87-5.18,4.761-6.511,5.881
			H137.684z"/>
		<path style="fill:#5F4B3E;" d="M182.552,449.619c0,1.33,0,5.671-5.46,5.671c-5.111,0-5.601-3.5-5.601-5.671v-24.223
			c-3.921,0.7-7.071-2.94-7.071-6.86c0-2.38,0.84-3.71,2.45-6.091c5.041-7.561,6.791-15.682,7.561-19.252
			c0.49-2.38,1.19-4.761,5.321-4.761c2.241,0,6.09,0.63,6.09,4.69c0,1.61-0.909,7.141-3.29,14.212V449.619z M189.413,429.387
			c-1.19,0-5.601,0-5.601-5.041c0-3.991,1.89-5.531,5.601-5.531h13.091v-3.71h-6.301c-5.53,0-8.751-1.89-8.751-8.681v-7.491
			c0-6.791,3.221-8.751,8.751-8.751h23.873c5.53,0,8.681,1.96,8.681,8.751v7.491c0,6.791-3.221,8.681-8.681,8.681h-6.651v3.71
			h13.021c1.261,0,5.671,0,5.671,5.041c0,4.201-2.101,5.531-5.671,5.531h-7.7c3.99,5.67,6.23,7.701,11.201,12.181
			c1.96,1.75,2.17,3.01,2.17,3.92c0,3.15-2.94,6.441-6.091,6.441c-2.17,0-3.36-1.05-6.16-4.341c-3.221-3.64-5.391-7.141-6.441-8.961
			v10.921c0,1.33,0,5.601-5.181,5.601c-4.06,0-5.74-1.68-5.74-5.601v-10.431c-1.61,2.1-4.551,6.091-9.661,10.641
			c-1.75,1.54-2.94,2.03-4.2,2.03c-3.36,0-5.95-3.291-5.95-6.441c0-2.31,1.399-3.5,3.57-5.041c4.48-3.22,6.931-5.041,11.341-10.921
			h-8.191V429.387z M217.275,401.454c0-1.12-0.56-1.68-1.68-1.68h-15.052c-1.12,0-1.681,0.56-1.681,1.68v2.59
			c0,1.12,0.561,1.68,1.681,1.68h15.052c1.12,0,1.68-0.56,1.68-1.68V401.454z"/>
		<path style="fill:#5F4B3E;" d="M250.172,390.393c4.83,0,9.171,0,9.171,7.21c0,4.271-0.49,5.881-2.38,11.691
			c-0.141,0.49-1.4,4.621-1.4,4.761c0,0.35,0.91,1.75,1.05,2.03c1.681,3.36,3.71,10.641,3.71,16.102
			c0,3.29-1.119,11.061-8.33,11.061c-0.7,0-3.36,0-4.69-1.68v8.751c0,3.43-1.471,4.831-5.601,4.831c-4.831,0-4.831-3.5-4.831-4.831
			v-50.755c0-7.841,1.33-9.171,9.102-9.171H250.172z M247.302,413.985c0.42-1.68,2.94-10.151,2.94-12.111
			c0-0.63-0.421-0.91-0.841-0.91h-1.05c-0.7,0-1.05,0.42-1.05,1.05v11.971H247.302z M247.302,433.237c0.7-0.77,1.33-0.91,2.03-1.05
			c0.979-0.21,1.399-0.56,1.399-2.8c0-2.1-0.56-6.021-1.61-9.031c-0.21-0.56-1.609-3.36-1.819-3.99V433.237z M285.735,438.768
			h11.901c1.26,0,4.761,0.07,4.761,4.69c0,4.69-3.431,4.69-4.761,4.69h-11.901v1.61c0,2.03-0.35,5.601-5.11,5.601
			c-3.99,0-6.021-1.26-6.021-5.601v-1.61h-12.392c-1.26,0-4.761,0-4.761-4.621c0-4.69,3.36-4.76,4.761-4.76h12.392v-1.68h-4.2
			c-7.771,0-9.172-1.26-9.172-9.101v-5.32c0-7.701,1.33-9.101,9.172-9.101h19.531c7.771,0,9.171,1.33,9.171,9.101v5.32
			c0,7.771-1.33,9.101-9.171,9.101h-4.2V438.768z M265.644,403.204c-0.141-0.84-0.351-1.75-0.561-2.59c-2.24,0-5.25,0-5.25-4.551
			c0-4.2,3.57-4.2,4.69-4.2h10.081c0.14-2.101,0.28-4.13,6.021-4.13c4.83,0,5.04,2.45,5.11,4.13h10.081c2.38,0,4.69,0.7,4.69,4.41
			c0,4.341-3.22,4.341-5.391,4.341c-0.069,0.35-0.63,2.17-0.77,2.59h3.36c2.31,0,4.69,0.63,4.69,4.411
			c0,4.13-3.081,4.271-4.69,4.271h-34.864c-2.31,0-4.69-0.56-4.69-4.34c0-4.201,3.08-4.341,4.69-4.341h2.803V403.204z
			 M288.956,422.386v-1.12c0-0.63-0.42-1.12-1.12-1.12h-15.262c-0.7,0-1.051,0.42-1.051,1.12v1.12H288.956z M271.523,428.267v1.12
			c0,0.7,0.351,1.12,1.051,1.12h15.262c0.7,0,1.12-0.42,1.12-1.12v-1.12H271.523z M275.374,400.614c0.07,0.35,0.49,2.17,0.63,2.59
			h8.331c0.351-1.54,0.42-1.75,0.63-2.59H275.374z"/>
	</g>
	<g>
		<path style="fill:#5F4B3E;" d="M328.139,448.62c0,3.538-2.867,6.345-6.284,6.345c-3.538,0-6.344-2.867-6.344-6.345
			c0-3.538,2.867-6.344,6.344-6.344C325.21,442.275,328.139,445.021,328.139,448.62z"/>
		<path style="fill:#5F4B3E;" d="M380.479,417.446c0,3.172-2.136,4.88-5.796,4.88c-4.087,0-4.637-1.708-5.246-3.599
			c-0.488-1.586-2.014-6.162-10.005-6.162c-8.785,0-12.079,6.955-12.079,16.044c0,9.822,3.782,16.044,11.957,16.044
			c8.235,0,9.395-4.453,9.943-6.344c0.732-2.745,1.281-4.515,5.734-4.576c3.966,0,5.613,2.257,5.613,4.88
			c0,5.734-5.734,16.35-21.108,16.35c-15.556,0-24.157-11.286-24.157-26.354c0-15.19,8.724-26.293,24.157-26.293
			C374.683,402.317,380.479,413.237,380.479,417.446z"/>
		<path style="fill:#5F4B3E;" d="M435.927,428.61c0,20.253-13.359,26.354-24.279,26.354c-13.482,0-24.341-8.663-24.341-25.866
			c0-21.779,14.396-26.781,24.341-26.781C423.849,402.317,435.927,409.577,435.927,428.61z M399.324,428.61
			c0,2.684,0,16.105,12.323,16.105c12.322,0.061,12.322-13.421,12.322-16.105c0-2.746,0-16.044-12.322-16.044
			C399.324,412.566,399.324,425.865,399.324,428.61z"/>
		<path style="fill:#5F4B3E;" d="M475.819,450.267c-0.61,2.868-3.051,4.698-6.527,4.698c-5.063,0-6.406-3.417-6.649-4.637
			l-6.833-33.369h-0.122l0.671,9.272v23.304c0,2.623-0.854,5.43-5.795,5.43c-4.881,0-5.918-2.44-5.918-5.43v-41.361
			c0-3.904,1.77-5.917,7.26-5.917c6.833,0,8.541,0.976,9.578,5.917l7.137,34.65c0.062,0.244,0.184,0.793,0.61,0.793
			s0.549-0.488,0.61-0.793l7.076-34.65c0.854-4.148,2.44-5.917,8.236-5.917c6.039,0,8.602,1.037,8.602,5.917v41.361
			c0,1.525,0,5.43-5.734,5.43c-3.904,0-5.918-1.464-5.918-5.43v-23.304l0.671-9.272h-0.122L475.819,450.267z"/>
	</g>
	<g>
		<path style="fill:#666767;" d="M520.17,452.299c-0.42,1.95-1.98,2.37-3.21,2.37c-1.95,0-2.46-0.78-2.46-1.86
			c0-0.3,0.03-0.51,0.09-0.72l3.99-18.899c0.869-4.08,3.689-8.13,9.149-8.13c4.71,0,7.35,2.94,7.35,6.63c0,0.78,0,4.56-4.5,5.7
			c1.86,0.63,3.78,2.52,3.78,5.7c0,0.63-0.12,7.86-7.35,7.86c-0.69,0-3.99,0-5.97-2.82L520.17,452.299z M522.06,443.27
			c0.45,1.47,1.92,3.06,3.6,3.06c2.94,0,3.03-2.88,3.03-3.33c0-1.38-0.69-3.06-2.25-3.51c-1.53-0.45-1.83-0.54-1.83-1.89
			c0-2.34,1.44-2.37,2.1-2.4c0.45,0,2.67-0.39,2.67-3.27c0-1.92-1.38-2.25-2.1-2.25c-2.31,0-2.729,1.86-3.24,4.32L522.06,443.27z"/>
		<path style="fill:#666767;" d="M553.619,429.05c0-2.94,1.38-3.75,3.75-3.75h9.6c0.78,0,2.4,0.09,2.4,2.16
			c0,1.68-0.511,2.58-2.4,2.58h-8.43c-0.45,0-0.689,0.27-0.689,0.69v2.25h7.199c1.71,0,3.57,0.24,3.57,2.85
			c0,2.4-1.05,7.02-2.88,10.32c0.6,0.63,0.81,0.78,2.58,2.25c0.6,0.51,0.989,0.96,0.989,1.89c0,1.44-1.229,2.82-2.699,2.82
			c-1.021,0-1.95-0.6-3.87-2.91c-0.391,0.39-2.76,2.85-4.29,2.85c-1.35,0-2.07-1.17-2.31-1.68c-0.301,0.75-0.69,1.77-1.891,1.77
			c-0.449,0-2.13-0.24-2.64-1.71c-0.27,0.39-0.689,0.84-1.83,0.84c-2.13,0-2.13-1.41-2.13-2.04v-6.63c0-0.3-0.21-0.48-0.479-0.48
			h-0.931c-0.06,3.63-0.539,6-0.84,7.26c-0.3,1.29-0.6,2.55-2.1,2.55c-0.63,0-2.7-0.27-2.7-2.28c0-0.66,0.78-3.48,0.9-4.08
			c0.24-1.05,0.51-2.7,0.51-5.7v-13.98c0-0.57,0-2.04,2.13-2.04c2.16,0,2.16,1.44,2.16,2.04v4.89h1.56v-5.19
			c0-0.54,0-2.04,2.01-2.04c2.07,0,2.07,1.47,2.07,2.04v5.19c1.41,0.03,1.53,1.41,1.53,1.98c0,2.07-0.87,2.43-2.101,2.43H546.3v2.4
			h1.56c2.22,0,3.99,0,3.99,3.21v7.71c0.93-2.28,1.77-4.35,1.77-9.54L553.619,429.05L553.619,429.05z M560.129,446.209
			c-0.96-1.74-1.859-3.99-2.279-5.52c0,3.9-0.78,7.439-0.87,7.83C559.199,447.019,559.469,446.839,560.129,446.209z M557.85,439.01
			c0.39-0.87,1.5-1.17,2.189-1.17c1.08,0,1.41,0.63,1.59,1.17c0.75,2.04,0.78,2.1,1.29,3.149c1.17-2.55,1.41-4.14,1.41-4.26
			c0-0.03,0-0.45-0.57-0.45h-5.909V439.01z"/>
	</g>
</g>
</svg>
