<?xml version="1.0" encoding="iso-8859-1"?>
<!-- Generator: Adobe Illustrator 18.1.0, SVG Export Plug-In . SVG Version: 6.00 Build 0)  -->
<svg version="1.1" id="&#x30EC;&#x30A4;&#x30E4;&#x30FC;_1"
	 xmlns="http://www.w3.org/2000/svg" xmlns:xlink="http://www.w3.org/1999/xlink" x="0px" y="0px" viewBox="0 0 595.28 841.89"
	 style="enable-background:new 0 0 595.28 841.89;" xml:space="preserve">
<g>
	<path style="fill:#070001;" d="M585,124.205H422.725c-3.959,0-7.162,3.205-7.162,7.163v121.087c0,3.959,3.205,7.163,7.162,7.163
		h162.276c3.959,0,7.162-3.205,7.162-7.163V131.369C592.163,127.413,588.958,124.205,585,124.205z"/>
	<path style="fill:#070001;" d="M283.496,612.743h-116.08c-3.959,0-7.163,3.205-7.163,7.162v66.176c0,3.959,3.205,7.162,7.163,7.162
		h116.08c3.959,0,7.163-3.205,7.163-7.162v-66.176C290.658,615.948,287.45,612.743,283.496,612.743z"/>
	<path style="fill:#070001;" d="M584.998,288.643H422.725c-3.959,0-7.162,3.205-7.162,7.164v197.039h-248.15
		c-3.959,0-7.163,3.205-7.163,7.162v77.446c0,3.959,3.205,7.162,7.163,7.162h150.948v101.468c0,3.959,3.205,7.162,7.162,7.162
		h103.976c3.959,0,7.164-3.205,7.164-7.162v-59.91h82.754v59.91c0,3.959,3.205,7.162,7.163,7.162h58.415
		c3.959,0,7.162-3.205,7.162-7.162V295.805C592.158,291.851,588.955,288.643,584.998,288.643z"/>
	<path style="fill:#070001;" d="M128.956,492.845H16.714c-3.959,0-7.162,3.205-7.162,7.162v125.585c0,3.959,3.205,7.162,7.162,7.162
		h31.545v53.327c0,3.959,3.205,7.162,7.163,7.162h73.537c3.959,0,7.163-3.205,7.163-7.162V500.008
		C136.118,496.052,132.911,492.845,128.956,492.845z"/>
</g>
<line style="fill:none;" x1="-50.142" y1="759.726" x2="-50.142" y2="57.726"/>
<line style="fill:none;" x1="651.858" y1="57.726" x2="651.858" y2="759.726"/>
</svg>
