<?xml version="1.0" encoding="iso-8859-1"?>
<!-- Generator: Adobe Illustrator 18.1.0, SVG Export Plug-In . SVG Version: 6.00 Build 0)  -->
<svg version="1.1" id="&#x30EC;&#x30A4;&#x30E4;&#x30FC;_1"
	 xmlns="http://www.w3.org/2000/svg" xmlns:xlink="http://www.w3.org/1999/xlink" x="0px" y="0px" viewBox="0 0 850.39 113.39"
	 style="enable-background:new 0 0 850.39 113.39;" xml:space="preserve">
<g>
	<g>
		<path style="fill:#5F4B3E;" d="M37.495,101.08c0,4.556-1.518,8.677-8.243,8.677c-6.617,0-10.088-1.301-10.088-8.677V75.916
			c-1.085,0.868-2.711,1.953-5.423,1.953c-5.315,0-9.654-5.206-9.654-10.305c0-4.989,2.929-7.159,9.327-11.823
			c11.607-8.351,15.512-16.812,15.512-17.138c0-0.108,0-1.193-1.519-1.193H14.067c-2.061,0-8.786,0-8.786-8.027
			c0-6.617,2.929-9.003,8.786-9.003h5.097v-5.965c0-3.037,0.325-8.786,8.461-8.786c6.942,0,9.761,2.278,9.761,8.786v5.965h1.953
			c8.568,0,10.304,5.857,10.304,10.63c0,1.518-0.216,2.603-0.216,3.471c1.518-1.627,3.253-2.278,6.724-2.278h11.607V14.74
			c0-3.58,0.76-8.786,8.568-8.786c7.376,0,10.088,2.278,10.088,8.786v17.463h11.607c2.82,0,9.328,0.217,9.328,8.569
			c0,7.267-2.82,9.761-9.328,9.761H86.414v38.615h12.908c2.82,0,9.219,0.217,9.219,8.352c0,7.05-2.602,9.653-9.219,9.653H53.44
			c-3.037,0-10.304-0.108-10.304-8.352c0-7.159,3.146-9.653,10.304-9.653h14.318V50.534H56.151c-5.532,0-8.785-2.061-8.894-8.894
			c-1.301,2.929-3.146,6.182-6.4,11.063c0.868,0.976,2.279,2.494,6.617,6.508c4.122,3.905,5.859,5.532,5.859,8.244
			c0,3.688-3.364,8.895-8.245,8.895c-3.687,0-5.748-2.603-7.593-4.773V101.08z"/>
		<path style="fill:#5F4B3E;" d="M144.974,49.341c-3.253,0-7.049-0.651-8.351-5.206c-1.41,0.76-2.82,1.627-6.184,3.255
			c-3.578,1.735-5.857,2.386-7.809,2.386c-5.641,0-9.112-5.424-9.112-10.738c0-5.532,3.471-6.942,5.857-7.919
			c10.305-4.339,19.741-8.135,31.998-19.741c3.471-3.363,6.726-6.399,14.318-6.399c7.375,0,9.544,2.061,16.486,8.352
			c11.172,10.196,22.02,14.643,29.612,17.68c3.037,1.193,6.073,2.711,6.073,8.135c0,5.532-3.796,10.63-9.11,10.63
			c-2.279,0-5.75-0.977-14.102-5.749c-1.301,4.989-5.857,5.315-8.352,5.315H144.974z M194.327,72.662
			c2.604,2.061,8.677,9.328,11.389,12.799c8.027,9.87,8.027,11.606,8.027,13.559c0,6.508-7.484,9.653-11.605,9.653
			c-3.364,0-3.905-0.759-7.81-6.508c-9.003,1.301-16.27,1.953-30.045,2.929c-10.088,0.651-37.421,2.386-38.18,2.386
			c-2.17,0-8.677,0-8.677-9.436c0-1.735,0.434-6.834,4.663-8.027c1.519-0.434,7.267-0.542,10.847-0.651
			c3.796-8.244,5.641-13.884,6.508-16.704h-14.425c-5.966,0-8.894-2.495-8.894-9.112c0-8.243,6.724-8.243,8.894-8.243h81.242
			c5.966,0,8.786,2.495,8.786,9.22c0,8.135-6.726,8.135-8.786,8.135H194.327z M159.292,72.662
			c-2.928,6.942-4.338,10.196-7.267,16.162c13.342-0.325,15.185-0.434,31.782-1.302c-4.665-5.532-5.206-6.074-5.206-8.568
			c0-2.061,1.301-4.448,4.013-6.291H159.292z M179.142,33.505c-2.17-1.844-5.532-4.665-10.088-9.112
			c-1.735-1.735-2.386-2.386-3.362-2.386s-1.628,0.651-3.364,2.386c-4.554,4.447-8.025,7.376-10.088,9.112H179.142z"/>
		<path style="fill:#5F4B3E;" d="M248.658,101.08c0,2.061,0,8.786-8.46,8.786c-7.919,0-8.677-5.424-8.677-8.786V63.55
			c-6.075,1.085-10.956-4.555-10.956-10.629c0-3.688,1.301-5.749,3.796-9.437c7.81-11.714,10.522-24.297,11.714-29.828
			c0.76-3.688,1.844-7.376,8.245-7.376c3.472,0,9.436,0.977,9.436,7.267c0,2.495-1.409,11.064-5.097,22.02V101.08z M259.289,69.733
			c-1.844,0-8.677,0-8.677-7.81c0-6.183,2.928-8.569,8.677-8.569h20.283v-5.749h-9.762c-8.568,0-13.559-2.929-13.559-13.45V22.55
			c0-10.522,4.99-13.559,13.559-13.559h36.988c8.568,0,13.45,3.037,13.45,13.559v11.606c0,10.521-4.99,13.45-13.45,13.45h-10.305
			v5.749h20.175c1.953,0,8.786,0,8.786,7.81c0,6.508-3.255,8.569-8.786,8.569h-11.93c6.182,8.786,9.653,11.931,17.355,18.873
			c3.037,2.711,3.362,4.664,3.362,6.074c0,4.881-4.556,9.979-9.437,9.979c-3.362,0-5.206-1.627-9.544-6.726
			c-4.99-5.64-8.352-11.063-9.98-13.884v16.921c0,2.061,0,8.677-8.027,8.677c-6.29,0-8.894-2.603-8.894-8.677V84.81
			c-2.495,3.254-7.051,9.437-14.969,16.487c-2.711,2.386-4.556,3.146-6.508,3.146c-5.206,0-9.219-5.098-9.219-9.979
			c0-3.579,2.168-5.423,5.532-7.81c6.942-4.989,10.738-7.81,17.571-16.921H259.289z M302.458,26.454
			c0-1.735-0.867-2.603-2.602-2.603h-23.321c-1.735,0-2.604,0.868-2.604,2.603v4.013c0,1.735,0.868,2.603,2.604,2.603h23.321
			c1.735,0,2.602-0.868,2.602-2.603V26.454z"/>
		<path style="fill:#5F4B3E;" d="M353.427,9.317c7.484,0,14.209,0,14.209,11.172c0,6.617-0.76,9.112-3.687,18.114
			c-0.218,0.76-2.17,7.159-2.17,7.376c0,0.542,1.41,2.711,1.627,3.146c2.604,5.206,5.748,16.486,5.748,24.947
			c0,5.097-1.734,17.138-12.906,17.138c-1.085,0-5.206,0-7.267-2.603v13.559c0,5.315-2.279,7.484-8.677,7.484
			c-7.485,0-7.485-5.424-7.485-7.484V23.526c0-12.148,2.061-14.209,14.102-14.209H353.427z M348.98,45.87
			c0.651-2.603,4.556-15.727,4.556-18.765c0-0.976-0.652-1.41-1.303-1.41h-1.627c-1.085,0-1.627,0.651-1.627,1.627V45.87z
			 M348.98,75.698c1.085-1.193,2.061-1.41,3.146-1.627c1.518-0.325,2.168-0.868,2.168-4.339c0-3.254-0.867-9.329-2.495-13.993
			c-0.325-0.868-2.494-5.206-2.819-6.182V75.698z M408.528,84.268h18.44c1.952,0,7.376,0.108,7.376,7.267
			c0,7.267-5.315,7.267-7.376,7.267h-18.44v2.495c0,3.146-0.542,8.677-7.918,8.677c-6.182,0-9.328-1.953-9.328-8.677v-2.495h-19.199
			c-1.952,0-7.376,0-7.376-7.159c0-7.267,5.206-7.375,7.376-7.375h19.199v-2.603h-6.508c-12.041,0-14.211-1.953-14.211-14.101V59.32
			c0-11.931,2.061-14.101,14.211-14.101h30.261c12.041,0,14.209,2.061,14.209,14.101v8.243c0,12.04-2.061,14.101-14.209,14.101
			h-6.508V84.268z M377.398,29.166c-0.218-1.301-0.543-2.711-0.868-4.013c-3.471,0-8.134,0-8.134-7.051
			c0-6.508,5.532-6.508,7.267-6.508h15.619c0.216-3.255,0.434-6.399,9.328-6.399c7.484,0,7.809,3.796,7.918,6.399h15.619
			c3.687,0,7.267,1.085,7.267,6.833c0,6.726-4.989,6.726-8.352,6.726c-0.107,0.542-0.976,3.362-1.192,4.013h5.206
			c3.578,0,7.267,0.977,7.267,6.834c0,6.399-4.774,6.617-7.267,6.617h-54.018c-3.578,0-7.267-0.868-7.267-6.725
			c0-6.508,4.772-6.726,7.267-6.726H377.398z M413.518,58.886v-1.735c0-0.976-0.651-1.735-1.735-1.735h-23.646
			c-1.085,0-1.628,0.651-1.628,1.735v1.735H413.518z M386.508,67.998v1.735c0,1.084,0.543,1.735,1.628,1.735h23.646
			c1.085,0,1.735-0.651,1.735-1.735v-1.735H386.508z M392.474,25.153c0.109,0.542,0.76,3.362,0.976,4.013h12.908
			c0.543-2.386,0.651-2.711,0.976-4.013H392.474z"/>
	</g>
	<g>
		<path style="fill:#5F4B3E;" d="M474.226,99.531c0,5.482-4.442,9.83-9.737,9.83c-5.482,0-9.829-4.442-9.829-9.83
			c0-5.482,4.442-9.83,9.829-9.83C469.689,89.702,474.226,93.955,474.226,99.531z"/>
		<path style="fill:#5F4B3E;" d="M555.32,51.232c0,4.915-3.309,7.562-8.98,7.562c-6.332,0-7.184-2.646-8.128-5.576
			c-0.757-2.458-3.12-9.547-15.501-9.547c-13.611,0-18.715,10.775-18.715,24.859c0,15.218,5.86,24.858,18.526,24.858
			c12.76,0,14.556-6.9,15.406-9.83c1.135-4.253,1.985-6.995,8.885-7.089c6.145,0,8.697,3.497,8.697,7.562
			c0,8.885-8.885,25.332-32.705,25.332c-24.101,0-37.428-17.486-37.428-40.832c0-23.536,13.516-40.738,37.428-40.738
			C546.34,27.792,555.32,44.71,555.32,51.232z"/>
		<path style="fill:#5F4B3E;" d="M641.23,68.53c0,31.38-20.699,40.832-37.618,40.832c-20.889,0-37.713-13.422-37.713-40.076
			c0-33.743,22.305-41.493,37.713-41.493C622.516,27.792,641.23,39.039,641.23,68.53z M584.519,68.53
			c0,4.159,0,24.953,19.093,24.953c19.092,0.095,19.092-20.794,19.092-24.953c0-4.254,0-24.859-19.092-24.859
			C584.519,43.671,584.519,64.276,584.519,68.53z"/>
		<path style="fill:#5F4B3E;" d="M703.038,102.083c-0.946,4.443-4.727,7.279-10.113,7.279c-7.845,0-9.926-5.293-10.302-7.184
			l-10.587-51.701h-0.189l1.039,14.366v36.106c0,4.064-1.322,8.413-8.979,8.413c-7.562,0-9.169-3.781-9.169-8.413V36.866
			c0-6.049,2.742-9.168,11.248-9.168c10.587,0,13.233,1.512,14.84,9.168l11.057,53.686c0.095,0.378,0.284,1.229,0.946,1.229
			s0.85-0.756,0.946-1.229l10.964-53.686c1.324-6.427,3.781-9.168,12.761-9.168c9.357,0,13.327,1.607,13.327,9.168v64.083
			c0,2.363,0,8.413-8.885,8.413c-6.049,0-9.169-2.269-9.169-8.413V64.843l1.039-14.366h-0.189L703.038,102.083z"/>
	</g>
	<g>
		<path style="fill:#666666;" d="M771.754,105.232c-0.651,3.022-3.068,3.672-4.973,3.672c-3.022,0-3.811-1.209-3.811-2.882
			c0-0.465,0.047-0.791,0.139-1.116l6.182-29.281c1.347-6.322,5.716-12.596,14.176-12.596c7.297,0,11.387,4.555,11.387,10.272
			c0,1.208,0,7.064-6.972,8.831c2.882,0.976,5.857,3.904,5.857,8.831c0,0.976-0.186,12.178-11.387,12.178
			c-1.07,0-6.182,0-9.249-4.37L771.754,105.232z M774.682,91.242c0.698,2.277,2.975,4.74,5.577,4.74
			c4.556,0,4.695-4.462,4.695-5.159c0-2.138-1.07-4.741-3.486-5.439c-2.371-0.697-2.835-0.836-2.835-2.928
			c0-3.625,2.232-3.672,3.253-3.718c0.698,0,4.137-0.604,4.137-5.066c0-2.975-2.138-3.486-3.253-3.486
			c-3.578,0-4.229,2.882-5.02,6.693L774.682,91.242z"/>
		<path style="fill:#666666;" d="M823.579,69.21c0-4.555,2.138-5.809,5.81-5.809h14.873c1.209,0,3.719,0.139,3.719,3.346
			c0,2.603-0.791,3.997-3.719,3.997h-13.061c-0.698,0-1.068,0.418-1.068,1.069V75.3h11.154c2.649,0,5.532,0.371,5.532,4.415
			c0,3.718-1.627,10.877-4.462,15.989c0.929,0.976,1.254,1.208,3.997,3.485c0.929,0.791,1.533,1.487,1.533,2.929
			c0,2.231-1.905,4.369-4.182,4.369c-1.581,0-3.022-0.93-5.996-4.508c-0.605,0.604-4.276,4.415-6.647,4.415
			c-2.091,0-3.208-1.813-3.578-2.602c-0.466,1.162-1.07,2.742-2.929,2.742c-0.696,0-3.3-0.372-4.09-2.649
			c-0.418,0.604-1.068,1.301-2.835,1.301c-3.3,0-3.3-2.185-3.3-3.161V91.753c0-0.465-0.325-0.744-0.743-0.744h-1.442
			c-0.092,5.624-0.835,9.296-1.301,11.248c-0.465,1.999-0.929,3.951-3.253,3.951c-0.976,0-4.184-0.418-4.184-3.532
			c0-1.022,1.209-5.392,1.395-6.321c0.372-1.627,0.79-4.184,0.79-8.831V65.864c0-0.884,0-3.161,3.3-3.161
			c3.347,0,3.347,2.231,3.347,3.161v7.576h2.416v-8.041c0-0.837,0-3.16,3.114-3.16c3.208,0,3.208,2.277,3.208,3.16v8.041
			c2.185,0.046,2.371,2.185,2.371,3.068c0,3.207-1.348,3.764-3.255,3.764h-7.854v3.718h2.416c3.439,0,6.182,0,6.182,4.973v11.946
			c1.44-3.533,2.742-6.74,2.742-14.78V69.21z M833.665,95.796c-1.487-2.696-2.881-6.182-3.531-8.552
			c0,6.042-1.209,11.526-1.348,12.131C832.225,97.051,832.642,96.773,833.665,95.796z M830.134,84.642
			c0.604-1.348,2.324-1.813,3.392-1.813c1.673,0,2.185,0.977,2.463,1.813c1.162,3.16,1.209,3.253,1.999,4.88
			c1.813-3.951,2.185-6.414,2.185-6.6c0-0.046,0-0.697-0.884-0.697h-9.156V84.642z"/>
	</g>
</g>
</svg>
